<?xml version="1.0" standalone="no"?>
<!DOCTYPE svg PUBLIC "-//W3C//DTD SVG 20010904//EN"
 "http://www.w3.org/TR/2001/REC-SVG-20010904/DTD/svg10.dtd">
<svg version="1.0" xmlns="http://www.w3.org/2000/svg"
 width="200.000000pt" height="120.000000pt" viewBox="0 0 200.000000 120.000000"
 preserveAspectRatio="xMidYMid meet">
<metadata>
Created by potrace 1.16, written by Peter Selinger 2001-2019
</metadata>
<g transform="translate(0.000000,120.000000) scale(0.019608,-0.016949)"
fill="#000000" stroke="none">
<path d="M1600 6627 c0 -14 72 -85 205 -202 50 -44 141 -129 203 -190 102 -99
124 -127 221 -285 139 -224 232 -388 267 -470 16 -36 54 -118 86 -182 102
-208 119 -268 174 -633 14 -93 33 -203 43 -243 15 -61 16 -75 4 -91 -9 -13
-16 -79 -23 -198 -28 -510 -92 -730 -262 -905 -91 -93 -100 -98 -178 -87 -82
11 -184 61 -272 134 -60 49 -70 54 -93 45 -37 -14 -46 -12 -43 7 3 19 -138
143 -163 143 -10 0 -19 11 -22 28 -3 15 -25 60 -48 100 -24 42 -43 88 -44 108
-1 20 -7 40 -14 47 -6 6 -11 21 -11 33 0 11 -4 34 -9 50 -5 16 -14 54 -21 84
-7 30 -17 61 -22 67 -7 8 -8 72 -3 175 9 205 8 196 46 349 11 44 99 182 143
222 17 17 64 52 104 79 71 48 81 63 66 102 -8 22 -32 20 -111 -9 -44 -15 -77
-35 -93 -54 -19 -22 -32 -29 -47 -25 -12 4 -32 -1 -45 -10 -13 -9 -43 -16 -70
-16 -38 0 -72 -12 -161 -55 -117 -58 -279 -157 -285 -174 -5 -14 148 -15 198
-2 19 5 72 12 116 15 l82 5 6 -31 c7 -36 -9 -62 -35 -55 -19 5 -39 -36 -39
-80 0 -15 -13 -37 -32 -55 -31 -29 -33 -35 -33 -97 l0 -66 35 -6 35 -6 -27
-11 c-16 -6 -28 -18 -28 -26 0 -7 -20 -30 -45 -50 -38 -31 -45 -43 -45 -72 0
-42 15 -74 35 -74 21 0 19 -12 -5 -33 -27 -23 -25 -50 5 -83 30 -33 31 -39 5
-71 -25 -32 -25 -43 -2 -43 14 0 14 -2 3 -9 -12 -7 -12 -13 -3 -24 7 -8 12
-25 11 -38 0 -13 0 -40 -1 -59 0 -20 5 -38 14 -44 12 -7 13 -15 4 -37 -8 -21
-7 -32 2 -41 9 -9 12 -9 12 1 0 7 5 9 10 6 16 -10 12 -38 -4 -32 -12 5 -12 -2
-1 -43 16 -61 22 -70 44 -70 27 0 32 -10 16 -34 -31 -43 -19 -80 50 -158 77
-87 125 -125 265 -208 58 -35 121 -73 141 -86 35 -24 209 -74 255 -74 25 0
115 73 223 181 93 93 371 434 409 501 17 32 57 93 88 135 93 129 121 197 183
433 52 200 64 548 25 733 -19 93 -146 473 -175 522 -51 89 -251 386 -316 470
-230 295 -588 643 -841 814 -94 64 -162 88 -162 58z"/>
<path d="M4051 6140 c-24 -11 -84 -59 -132 -107 -69 -67 -86 -89 -78 -100 6
-7 22 -13 35 -13 14 0 56 -16 95 -35 45 -23 77 -34 90 -30 22 7 205 179 220
206 14 27 1 48 -44 70 -59 31 -132 34 -186 9z"/>
<path d="M8515 6148 c-64 -23 -241 -184 -232 -212 2 -6 19 -13 39 -17 19 -3
65 -20 101 -37 63 -31 69 -32 95 -18 41 21 212 196 212 216 0 25 -32 50 -86
66 -54 16 -87 17 -129 2z"/>
<path d="M4416 5965 c-78 -28 -143 -122 -130 -190 3 -20 17 -48 29 -63 12 -15
27 -37 34 -49 25 -49 89 -14 161 89 28 40 58 77 66 81 29 16 -21 104 -76 132
-35 18 -35 18 -84 0z"/>
<path d="M8870 5967 c-81 -21 -146 -106 -138 -180 6 -46 64 -145 86 -146 39
-2 84 35 134 110 29 43 59 78 66 79 20 0 14 44 -12 79 -43 58 -79 73 -136 58z"/>
<path d="M3880 5693 c-47 -24 -110 -88 -110 -112 0 -11 12 -33 26 -50 29 -35
139 -91 177 -91 27 0 122 66 176 124 l35 36 -21 27 c-50 68 -207 105 -283 66z"/>
<path d="M8320 5690 c-42 -26 -88 -68 -101 -93 -22 -40 70 -124 162 -148 43
-12 49 -11 90 14 24 14 69 48 99 75 51 46 54 51 45 78 -15 43 -105 85 -193 91
-56 4 -73 1 -102 -17z"/>
<path d="M4257 5282 c-15 -15 -27 -33 -27 -39 0 -14 -43 -25 -64 -17 -18 7
-78 -30 -116 -71 -29 -31 -43 -32 -34 -2 8 27 9 28 -63 -60 -32 -39 -116 -136
-188 -214 -71 -79 -122 -140 -113 -136 10 3 90 54 179 112 89 59 178 114 198
123 20 9 44 23 54 31 24 20 28 12 33 -60 4 -50 0 -74 -17 -114 -12 -27 -21
-66 -21 -86 1 -28 -5 -42 -33 -69 -32 -31 -35 -39 -35 -89 -1 -57 -6 -74 -99
-326 -148 -397 -275 -682 -383 -860 -109 -180 -208 -372 -244 -473 -10 -28
-21 -52 -24 -52 -9 0 -162 -100 -178 -117 -56 -56 -228 -142 -284 -143 -26 0
-22 -17 5 -24 73 -19 181 6 320 76 88 44 123 55 187 60 8 1 23 12 33 24 25 33
79 47 184 48 51 1 93 2 93 2 0 8 -205 74 -215 70 -30 -11 -24 16 24 116 27 57
60 135 75 175 14 39 41 103 61 142 33 67 39 73 103 105 145 73 431 169 539
181 61 7 164 -12 303 -57 141 -45 165 -71 224 -243 46 -135 75 -195 125 -254
21 -25 45 -60 54 -77 30 -59 90 -279 94 -349 4 -65 2 -73 -27 -117 -32 -48
-109 -119 -220 -203 -81 -62 -158 -133 -172 -160 -6 -11 15 4 46 33 76 69 169
123 313 182 113 46 117 49 129 86 11 35 13 37 19 17 4 -13 10 -23 14 -23 42 0
261 214 261 255 0 35 -47 206 -76 279 -14 35 -34 72 -45 82 -10 9 -19 23 -19
31 0 7 -5 13 -11 13 -7 0 -9 10 -5 25 11 44 -11 102 -50 131 -43 33 -64 72
-64 119 0 44 -132 378 -217 550 -33 66 -86 180 -119 254 -32 73 -60 128 -62
122 -8 -24 -23 -9 -17 17 5 26 -28 119 -81 227 -8 17 -33 100 -55 185 -22 85
-48 169 -59 186 -12 21 -15 35 -8 42 6 6 4 21 -8 43 -10 19 -19 48 -20 64 -2
41 -65 174 -104 218 -39 44 -58 46 -93 9z m-29 -754 c7 -7 12 -34 12 -60 0
-26 4 -48 10 -48 5 0 17 -25 26 -56 15 -53 17 -55 42 -50 18 5 23 4 13 -3 -18
-12 -10 -86 14 -132 57 -109 65 -131 65 -177 0 -36 6 -58 25 -83 39 -53 58
-96 52 -113 -12 -30 -84 -56 -170 -62 -127 -9 -386 -81 -496 -139 -26 -13 -30
-13 -50 9 -12 13 -17 26 -12 32 20 21 174 331 241 484 73 166 174 374 192 398
13 15 21 15 36 0z"/>
<path d="M8703 5287 c-13 -13 -23 -30 -23 -40 0 -17 -19 -22 -72 -18 -20 2
-40 -9 -75 -41 -27 -24 -56 -50 -66 -57 -16 -13 -17 -12 -7 13 15 39 -1 26
-66 -55 -31 -39 -106 -125 -167 -192 -60 -67 -120 -132 -131 -145 -24 -28 17
-3 208 122 93 61 239 146 249 146 1 0 3 -33 5 -74 2 -56 -2 -84 -18 -120 -11
-26 -20 -65 -20 -86 0 -31 -6 -43 -32 -65 -28 -24 -31 -32 -33 -88 -2 -51 -19
-107 -93 -304 -179 -475 -283 -708 -418 -928 -71 -116 -182 -333 -215 -419
-16 -41 -29 -57 -67 -80 -26 -17 -88 -60 -137 -97 -108 -79 -170 -112 -248
-130 -61 -15 -70 -23 -34 -33 74 -20 173 3 324 75 59 28 119 53 133 55 14 2
35 5 47 7 12 2 34 15 49 30 32 32 72 41 186 42 l87 0 -87 34 c-48 19 -101 34
-119 35 -18 1 -35 4 -38 7 -3 4 11 37 30 75 20 38 57 121 82 184 83 208 101
238 156 266 129 66 374 152 514 181 81 17 83 17 184 -6 133 -30 245 -67 281
-92 44 -32 71 -82 117 -219 26 -81 54 -144 79 -178 89 -127 100 -146 116 -200
10 -31 31 -101 48 -155 32 -103 33 -173 5 -223 -28 -50 -138 -151 -269 -246
-43 -32 -150 -140 -144 -146 3 -2 22 14 43 35 69 70 186 138 352 203 90 36 96
40 99 69 4 34 9 38 26 16 10 -13 15 -12 44 2 37 18 116 92 184 171 l45 53 -9
52 c-27 148 -91 321 -124 334 -8 3 -13 12 -10 19 3 8 -1 14 -8 14 -10 0 -12
13 -8 49 4 48 3 50 -52 110 -48 52 -56 66 -56 100 0 50 -135 389 -252 631 -47
96 -98 206 -113 243 -19 44 -33 66 -41 63 -18 -7 -28 12 -15 28 8 10 -3 46
-45 142 -31 72 -71 189 -90 263 -19 73 -42 150 -51 170 -8 20 -15 46 -14 59 0
13 -7 38 -16 55 -9 18 -18 46 -18 62 -2 44 -72 185 -108 218 -37 32 -54 33
-84 4z m-18 -810 c0 -23 8 -53 18 -67 9 -13 17 -33 17 -43 0 -27 19 -57 35
-57 11 0 15 -12 15 -48 0 -32 8 -63 24 -92 48 -87 59 -115 63 -160 7 -74 12
-88 42 -123 17 -18 33 -45 36 -59 10 -40 -56 -74 -160 -83 -44 -3 -105 -11
-135 -17 -68 -12 -245 -69 -339 -108 l-71 -29 -15 21 c-13 20 -10 31 57 157
39 75 77 147 84 161 7 14 45 99 84 190 72 164 168 363 198 408 14 21 17 22 31
8 9 -10 16 -34 16 -59z"/>
<path d="M5865 4981 c-16 -10 -43 -33 -59 -50 -27 -28 -35 -31 -92 -31 -48 0
-74 -6 -115 -28 -30 -15 -75 -36 -101 -46 -56 -21 -136 -103 -174 -178 -14
-28 -24 -52 -21 -54 5 -6 110 26 125 38 6 6 12 20 13 32 0 11 3 15 6 9 8 -22
48 -14 90 16 22 16 49 32 62 36 26 8 51 -9 51 -35 0 -20 -74 -210 -96 -250 -8
-14 -25 -56 -38 -95 -23 -68 -23 -70 -5 -77 11 -4 19 -12 19 -17 0 -16 -20
-23 -34 -12 -10 9 -18 -5 -35 -67 -28 -94 -38 -177 -23 -186 8 -4 5 -13 -8
-26 -18 -18 -20 -34 -20 -147 0 -71 5 -148 11 -172 7 -32 7 -53 -2 -72 -9 -23
-7 -41 10 -99 19 -61 20 -76 10 -105 -10 -27 -9 -45 5 -102 24 -90 33 -128 45
-187 27 -126 163 -211 357 -223 78 -5 96 -3 140 16 105 47 173 116 160 164 -5
23 -70 67 -97 67 -29 0 -136 59 -158 86 -52 68 -71 106 -71 145 0 22 -10 59
-22 82 -26 48 -26 57 -35 526 -6 354 -7 349 99 443 39 34 91 78 117 98 35 26
45 41 43 58 -4 23 7 29 24 12 7 -7 35 4 86 33 42 24 113 58 157 75 95 38 225
62 242 45 8 -8 17 -8 28 -1 54 33 312 -126 362 -223 11 -22 31 -49 44 -61 14
-12 25 -31 25 -42 0 -12 16 -47 35 -80 59 -97 76 -135 85 -193 11 -64 31 -100
64 -113 26 -10 41 -57 24 -78 -8 -9 -7 -76 2 -227 11 -178 11 -223 0 -262 -7
-27 -14 -88 -15 -138 -1 -102 -3 -110 -56 -296 -77 -270 -123 -384 -242 -594
-207 -366 -482 -758 -695 -987 -40 -43 -72 -82 -72 -88 0 -5 -17 -26 -37 -46
l-38 -36 35 23 c69 45 370 329 460 434 220 255 490 677 638 995 259 559 372
951 372 1285 0 306 -84 566 -247 767 -59 72 -127 138 -143 138 -6 0 -39 22
-74 50 -78 61 -143 80 -213 61 -36 -9 -48 -9 -54 0 -5 8 -27 10 -78 5 -210
-21 -429 -131 -690 -347 -148 -123 -171 -139 -198 -139 -19 0 -23 5 -23 33 0
46 40 164 99 296 28 62 51 115 51 117 0 2 -6 4 -13 4 -8 0 -22 9 -32 20 -22
25 -32 25 -70 1z"/>
<path d="M3595 648 c-93 -240 -129 -315 -154 -323 -12 -3 -21 -13 -21 -21 0
-12 16 -14 92 -12 62 2 93 7 96 16 2 7 -6 12 -21 12 -37 0 -51 23 -43 71 12
75 17 79 106 79 l78 0 22 -64 c13 -39 18 -74 14 -90 l-6 -26 76 0 c42 0 76 4
76 9 0 5 -15 24 -32 43 -27 27 -46 73 -108 256 -57 169 -79 222 -91 222 -12 0
-35 -46 -84 -172z"/>
<path d="M3910 740 c0 -73 2 -80 20 -80 16 0 20 7 20 30 0 44 42 80 91 80 l39
0 -1 -187 c-2 -216 -5 -244 -37 -258 -12 -5 -22 -16 -22 -23 0 -10 23 -12 97
-10 100 3 126 15 73 35 l-30 11 0 217 0 218 40 -6 c51 -7 67 -20 82 -68 6 -22
17 -39 25 -39 10 0 13 20 13 80 0 64 -3 80 -15 80 -8 0 -15 -4 -15 -10 0 -6
-65 -10 -175 -10 -110 0 -175 4 -175 10 0 6 -7 10 -15 10 -12 0 -15 -16 -15
-80z"/>
<path d="M4645 810 c-4 -6 -67 -10 -156 -10 -126 0 -149 -2 -149 -15 0 -9 9
-15 24 -15 13 0 27 -7 30 -16 3 -9 6 -106 6 -216 l0 -200 -30 -11 c-59 -22
-25 -32 136 -37 87 -3 161 -4 163 -3 6 4 32 155 27 160 -12 12 -35 -8 -41 -35
-11 -53 -71 -92 -141 -92 l-35 0 3 108 3 107 70 5 c53 4 70 9 70 20 0 11 -15
17 -49 21 -72 8 -96 40 -96 125 l0 64 34 0 c71 0 103 -23 121 -87 4 -13 13
-23 21 -23 11 0 14 17 14 80 0 73 -9 97 -25 70z"/>
<path d="M5406 592 c-72 -182 -96 -233 -123 -258 -18 -17 -30 -34 -26 -37 3
-4 46 -7 95 -7 68 0 88 3 88 14 0 7 -13 16 -29 19 -37 8 -44 29 -28 92 l12 50
84 0 84 0 24 -69 c16 -50 20 -72 12 -77 -6 -4 -8 -12 -5 -18 9 -13 146 -15
146 -2 0 5 -13 22 -28 38 -21 21 -46 82 -99 233 -39 113 -74 215 -78 228 -3
12 -14 22 -23 22 -13 0 -39 -57 -106 -228z"/>
<path d="M6174 806 c-3 -7 -4 -42 -2 -77 2 -49 7 -65 19 -67 11 -2 18 7 22 28
10 45 49 80 92 80 l35 0 0 -206 c0 -213 -5 -244 -40 -244 -11 0 -20 -7 -20
-15 0 -12 18 -15 100 -15 82 0 100 3 100 15 0 8 -6 15 -13 15 -8 0 -21 8 -30
18 -15 16 -17 47 -17 225 l0 207 36 0 c44 0 94 -45 94 -84 0 -19 5 -26 20 -26
18 0 20 7 20 80 0 64 -3 80 -15 80 -8 0 -15 -4 -15 -10 0 -6 -67 -10 -180 -10
-113 0 -180 4 -180 10 0 15 -20 12 -26 -4z"/>
<path d="M6910 810 c0 -6 -57 -10 -150 -10 -127 0 -150 -2 -150 -15 0 -8 9
-15 20 -15 33 0 40 -40 40 -228 0 -145 -3 -182 -16 -200 -8 -12 -22 -22 -30
-22 -8 0 -14 -7 -14 -15 0 -13 22 -15 134 -15 73 0 147 -3 163 -6 l30 -6 12
74 c16 88 16 92 -1 96 -8 1 -20 -15 -28 -39 -19 -54 -52 -78 -118 -86 l-52 -6
0 112 0 111 70 0 c63 0 70 2 70 20 0 17 -7 20 -45 20 -35 0 -52 6 -69 23 -27
27 -41 91 -31 138 7 31 8 31 58 26 57 -5 97 -39 97 -83 0 -17 5 -24 20 -24 18
0 20 7 20 80 0 64 -3 80 -15 80 -8 0 -15 -4 -15 -10z"/>
<path d="M7477 596 c-81 -207 -112 -266 -147 -278 -8 -2 -10 -9 -6 -16 5 -8
38 -12 97 -12 72 0 89 3 89 15 0 9 -9 15 -24 15 -41 0 -50 22 -35 87 l14 58
84 0 84 0 24 -69 c16 -50 20 -72 12 -77 -6 -4 -9 -12 -5 -18 9 -13 323 -15
331 -1 3 6 -6 20 -20 32 -34 30 -43 74 -52 242 -5 103 -3 137 5 132 11 -6 52
-60 251 -328 39 -54 78 -98 86 -98 11 0 14 40 17 208 3 166 7 214 20 245 9 20
24 37 32 37 9 0 16 7 16 15 0 12 -17 15 -90 15 -71 0 -90 -3 -90 -14 0 -8 9
-17 20 -21 11 -4 24 -22 31 -43 11 -38 24 -232 18 -266 -3 -14 -43 33 -139
162 l-134 182 -68 0 c-54 0 -68 -3 -68 -15 0 -8 9 -15 20 -15 37 0 43 -34 37
-194 -6 -163 -15 -207 -48 -242 -25 -26 -48 -20 -73 19 -13 19 -133 350 -157
435 -6 20 -16 32 -27 32 -13 0 -38 -54 -105 -224z"/>
<path d="M8572 778 c-10 -24 -49 -124 -87 -222 -52 -132 -79 -188 -102 -212
-18 -18 -33 -38 -33 -44 0 -6 35 -10 90 -10 73 0 90 3 90 15 0 8 -8 15 -18 15
-41 0 -54 52 -31 119 l11 32 82 -3 81 -3 22 -60 c13 -36 20 -71 17 -88 l-6
-28 73 3 c72 3 102 19 59 33 -28 9 -43 41 -111 239 -85 243 -90 256 -106 256
-7 0 -22 -19 -31 -42z"/>
<path d="M9530 810 c0 -6 -57 -10 -150 -10 -123 0 -150 -3 -150 -14 0 -8 10
-16 22 -18 31 -4 36 -32 36 -203 1 -191 -5 -226 -41 -243 -16 -8 -25 -18 -20
-22 4 -5 80 -10 167 -11 l160 -3 16 77 c9 42 14 79 12 82 -14 13 -32 2 -38
-22 -4 -16 -13 -38 -21 -50 -17 -25 -81 -53 -123 -53 l-30 0 0 110 0 110 70 0
c63 0 70 2 70 20 0 17 -7 20 -45 20 -37 0 -51 5 -70 26 -24 26 -40 89 -33 135
3 22 8 24 55 24 61 -1 90 -21 99 -71 4 -24 12 -34 25 -34 17 0 19 8 19 80 0
64 -3 80 -15 80 -8 0 -15 -4 -15 -10z"/>
<path d="M580 801 c-41 -13 -103 -56 -138 -95 -61 -70 -79 -213 -37 -297 73
-145 237 -166 386 -48 63 50 49 63 -27 23 -99 -52 -183 -46 -244 17 -85 88
-81 266 9 341 77 65 227 33 246 -52 5 -21 13 -30 26 -30 17 0 19 8 19 64 l0
64 -44 11 c-50 12 -158 13 -196 2z"/>
<path d="M1600 789 c-55 -25 -125 -90 -152 -143 -48 -93 -30 -221 40 -288 57
-55 98 -72 172 -72 206 0 352 216 264 392 -30 60 -79 104 -133 121 -59 17
-140 13 -191 -10z m123 -39 c63 -24 98 -58 128 -124 45 -103 23 -225 -50 -273
-42 -29 -119 -30 -176 -4 -128 58 -172 288 -73 379 48 44 96 50 171 22z"/>
<path d="M2188 796 c-48 -17 -108 -65 -141 -113 -92 -135 -37 -342 105 -389
81 -27 169 -4 261 68 60 48 45 59 -29 21 -131 -66 -245 -28 -289 96 -59 170
53 332 203 293 51 -14 102 -59 102 -92 0 -13 7 -20 20 -20 18 0 20 7 20 64 l0
64 -44 11 c-59 15 -162 13 -208 -3z"/>
<path d="M2700 801 c-111 -34 -210 -163 -210 -273 0 -90 54 -178 134 -221 57
-30 163 -30 226 1 61 29 118 87 146 147 30 63 32 161 5 221 -22 49 -92 111
-140 124 -41 11 -125 12 -161 1z m121 -61 c68 -35 113 -107 125 -201 16 -121
-51 -209 -159 -209 -109 0 -200 89 -214 210 -21 179 99 276 248 200z"/>
<path d="M4844 793 c-72 -42 -94 -71 -94 -124 0 -48 28 -82 120 -144 84 -57
100 -77 100 -126 0 -29 -6 -43 -26 -58 -60 -47 -144 -9 -165 75 -7 26 -17 44
-26 44 -11 0 -13 -16 -11 -77 l3 -78 56 -14 c48 -12 63 -12 105 -1 63 18 121
70 131 118 14 73 -1 99 -98 167 -88 62 -119 97 -119 134 0 35 10 48 45 61 53
20 115 -27 115 -90 0 -13 7 -20 20 -20 18 0 20 7 20 69 l0 69 -31 6 c-56 11
-114 6 -145 -11z"/>
<path d="M7105 794 c-74 -41 -102 -91 -85 -154 9 -35 23 -48 100 -102 95 -67
127 -109 116 -154 -11 -41 -42 -64 -87 -64 -53 0 -96 40 -105 99 -5 31 -11 41
-25 41 -17 0 -19 -8 -19 -75 0 -73 1 -76 28 -87 43 -17 142 -15 179 5 51 27
91 72 98 110 13 66 -14 105 -120 177 -82 55 -112 100 -95 144 11 31 51 49 86
40 30 -8 63 -49 71 -86 4 -19 12 -28 24 -28 17 0 19 8 19 64 0 38 -5 68 -11
72 -7 4 -41 9 -78 11 -48 2 -74 -1 -96 -13z"/>
<path d="M9725 794 c-48 -26 -75 -55 -86 -94 -18 -60 4 -96 104 -165 118 -81
143 -139 87 -195 -24 -24 -86 -27 -118 -4 -28 19 -52 65 -52 99 0 19 -5 25
-20 25 -19 0 -21 -5 -18 -77 l3 -78 55 -14 c70 -18 113 -10 175 31 48 32 75
75 75 121 0 38 -41 89 -109 135 -35 24 -74 53 -87 65 -56 52 -32 131 39 131
44 0 73 -25 89 -76 8 -26 17 -38 30 -38 16 0 18 9 18 64 0 38 -5 68 -11 72 -7
4 -41 9 -78 11 -48 2 -74 -1 -96 -13z"/>
<path d="M862 788 c3 -7 15 -15 29 -18 l24 -6 0 -214 0 -215 -28 -13 c-45 -22
-21 -32 78 -32 100 0 128 14 73 37 l-28 12 0 106 0 105 110 0 110 0 0 -106 0
-106 -30 -11 c-52 -20 -27 -32 70 -35 101 -3 130 7 83 30 l-28 13 0 215 c0
213 0 215 22 218 12 2 24 10 27 18 4 12 -12 14 -100 14 -79 0 -105 -3 -102
-12 3 -7 15 -15 29 -18 23 -6 24 -10 27 -93 l3 -87 -111 0 -111 0 3 87 c3 83
4 87 27 93 14 3 26 11 29 18 3 9 -23 12 -103 12 -80 0 -106 -3 -103 -12z"/>
<path d="M3070 785 c0 -8 9 -15 20 -15 34 0 40 -32 40 -229 0 -159 -3 -192
-16 -205 -8 -9 -22 -16 -30 -16 -8 0 -14 -7 -14 -15 0 -13 23 -15 143 -15 78
0 151 -3 163 -6 19 -5 22 1 37 73 8 43 13 81 10 86 -10 16 -23 5 -42 -37 -24
-55 -57 -78 -122 -84 l-49 -5 0 211 c0 116 3 217 6 226 3 9 17 16 30 16 15 0
24 6 24 15 0 12 -18 15 -100 15 -82 0 -100 -3 -100 -15z"/>
<path d="M5760 786 c0 -8 10 -16 23 -18 22 -3 22 -4 25 -216 l2 -212 -25 -12
c-14 -6 -25 -17 -25 -25 0 -11 20 -13 97 -11 100 3 126 15 73 35 l-30 11 0
101 c0 56 2 101 4 101 2 0 30 -42 63 -92 91 -145 105 -158 169 -158 42 0 54 3
54 15 0 9 -10 19 -22 24 -13 5 -32 19 -44 32 -25 29 -126 181 -122 183 73 43
118 103 118 158 0 87 -24 98 -215 98 -119 0 -145 -3 -145 -14z m225 -22 c41
-16 63 -145 29 -178 -18 -19 -53 -20 -89 -4 -24 11 -25 15 -25 93 0 45 3 85 7
88 8 9 56 9 78 1z"/>
<path d="M8850 786 c0 -9 12 -16 28 -18 l27 -3 3 -213 2 -214 -30 -11 c-59
-22 -25 -32 120 -35 84 -1 149 -7 157 -13 10 -9 15 -6 21 12 14 38 35 149 30
154 -12 12 -37 -9 -43 -35 -11 -51 -72 -90 -141 -90 l-34 0 0 199 c0 211 6
251 40 251 11 0 20 7 20 15 0 12 -18 15 -100 15 -80 0 -100 -3 -100 -14z"/>
</g>
</svg>
